<?xml version="1.0" encoding="iso-8859-1"?>
<!-- Generator: Adobe Illustrator 21.0.0, SVG Export Plug-In . SVG Version: 6.00 Build 0)  -->
<svg version="1.1" id="Capa_1" xmlns="http://www.w3.org/2000/svg" xmlns:xlink="http://www.w3.org/1999/xlink" x="0px" y="0px"
	 viewBox="0 0 595.049 595.049" style="enable-background:new 0 0 595.049 595.049;" xml:space="preserve">
<g>
	<g>
		<g id="filled_outline_4_">
			<path style="fill:#61BDC7;" d="M307.442,80.193l-4.85,4.85c-3.303-0.992-6.833-0.992-10.136,0l-4.85-4.85V64.464h-19.835v19.835
				c0,2.628,1.041,5.157,2.906,7.012l7.755,7.755c-0.466,1.646-0.724,3.352-0.744,5.068c0.02,7.051,3.798,13.567,9.917,17.078
				v22.592h19.835v-22.592c6.119-3.511,9.898-10.027,9.918-17.078c-0.02-1.716-0.278-3.422-0.744-5.068l7.755-7.755
				c1.864-1.855,2.906-4.384,2.906-7.012V64.464h-19.835V80.193z"/>
			<rect x="238.02" y="114.051" style="fill:#61BDC7;" width="19.835" height="29.752"/>
			<rect x="198.35" y="114.051" style="fill:#61BDC7;" width="19.835" height="29.752"/>
			<rect x="376.864" y="114.051" style="fill:#61BDC7;" width="19.835" height="29.752"/>
			<rect x="337.194" y="114.051" style="fill:#61BDC7;" width="19.835" height="29.752"/>
			<rect x="228.102" y="302.483" style="fill:#FABC5F;" width="39.67" height="218.185"/>
			<rect x="128.927" y="302.483" style="fill:#FABC5F;" width="39.67" height="218.185"/>
			<rect x="29.752" y="302.483" style="fill:#FABC5F;" width="39.67" height="218.185"/>
			<rect x="327.277" y="302.483" style="fill:#FABC5F;" width="39.67" height="218.185"/>
			<rect x="426.452" y="302.483" style="fill:#FABC5F;" width="39.67" height="218.185"/>
			<rect x="525.627" y="302.483" style="fill:#FABC5F;" width="39.67" height="218.185"/>
			<rect x="228.102" y="302.483" style="fill:#F5AE45;" width="39.67" height="29.752"/>
			<rect x="128.927" y="302.483" style="fill:#F5AE45;" width="39.67" height="29.752"/>
			<rect x="29.752" y="302.483" style="fill:#F5AE45;" width="39.67" height="29.752"/>
			<rect x="327.277" y="302.483" style="fill:#F5AE45;" width="39.67" height="29.752"/>
			<rect x="426.452" y="302.483" style="fill:#F5AE45;" width="39.67" height="29.752"/>
			<rect x="525.627" y="302.483" style="fill:#F5AE45;" width="39.67" height="29.752"/>
			<rect x="29.752" y="262.813" style="fill:#FABC5F;" width="535.544" height="39.67"/>
			<polygon style="fill:#F5AE45;" points="565.297,262.813 29.752,262.813 19.835,223.143 575.214,223.143 			"/>
			<rect x="208.267" y="143.804" style="fill:#F09E26;" width="178.515" height="79.34"/>
			<rect x="69.422" y="183.473" style="fill:#FABC5F;" width="138.845" height="39.67"/>
			<polygon style="fill:#F5AE45;" points="208.267,183.473 69.422,183.473 59.505,143.804 208.267,143.804 			"/>
			<rect x="386.782" y="183.473" style="fill:#FABC5F;" width="138.845" height="39.67"/>
			<polygon style="fill:#F5AE45;" points="386.782,183.473 525.627,183.473 535.544,143.804 386.782,143.804 			"/>
			<rect y="510.75" style="fill:#FABC5F;" width="595.049" height="19.835"/>
			<rect x="29.752" y="471.08" style="fill:#F09E26;" width="39.67" height="19.835"/>
			<rect x="128.927" y="471.08" style="fill:#F09E26;" width="39.67" height="19.835"/>
			<rect x="228.102" y="471.08" style="fill:#F09E26;" width="39.67" height="19.835"/>
			<rect x="327.277" y="471.08" style="fill:#F09E26;" width="39.67" height="19.835"/>
			<rect x="426.452" y="471.08" style="fill:#F09E26;" width="39.67" height="19.835"/>
			<rect x="525.627" y="471.08" style="fill:#F09E26;" width="39.67" height="19.835"/>
			<rect x="9.917" y="292.566" style="fill:#FABC5F;" width="575.214" height="19.835"/>
			<rect x="238.02" y="173.556" style="fill:#FABC5F;" width="19.835" height="19.835"/>
			<rect y="213.226" style="fill:#FABC5F;" width="595.049" height="19.835"/>
			<rect x="39.67" y="133.886" style="fill:#FABC5F;" width="515.709" height="19.835"/>
			<rect x="287.607" y="173.556" style="fill:#FABC5F;" width="19.835" height="19.835"/>
			<rect x="337.194" y="173.556" style="fill:#FABC5F;" width="19.835" height="19.835"/>
			<rect x="238.02" y="173.556" width="19.835" height="19.835"/>
			<path d="M535.544,213.226v-28.523l7.746-30.982h12.089v-19.835h-158.68v-19.835h-19.835v19.835h-19.835v-19.835h-19.835v19.835
				h-29.752v-12.675c6.119-3.511,9.898-10.027,9.918-17.078c-0.02-1.716-0.278-3.422-0.744-5.068l7.755-7.755
				c1.864-1.855,2.906-4.384,2.906-7.012V64.464h-19.835v15.729l-4.85,4.85c-3.303-0.992-6.833-0.992-10.136,0l-4.85-4.85V64.464
				h-19.835v19.835c0,2.628,1.041,5.157,2.906,7.012l7.755,7.755c-0.466,1.646-0.724,3.352-0.744,5.068
				c0.02,7.051,3.798,13.567,9.917,17.078v12.675h-29.752v-19.835H238.02v19.835h-19.835v-19.835H198.35v19.835H39.67v19.835h12.089
				l7.746,30.982v28.523H0v19.835h12.089l7.746,30.982v28.523H0v19.835h19.835v198.35H0v19.835h595.049V510.75h-19.835v-198.35
				h19.835v-19.835h-19.835v-28.523l7.746-30.982h12.089v-19.835H535.544z M396.699,193.391h119.01v19.835h-119.01V193.391z
				 M517.881,173.556H396.699v-19.835H522.84L517.881,173.556z M376.864,183.473v29.752h-158.68v-59.505h158.68V183.473z
				 M198.35,153.721v19.835H77.168l-4.959-19.835H198.35z M79.34,193.391h119.01v19.835H79.34V193.391z M555.379,292.566H39.67
				v-19.835h515.709V292.566z M555.379,471.08h-19.835v-158.68h19.835V471.08z M59.505,471.08H39.67v-158.68h19.835V471.08z
				 M79.34,312.401h39.67v198.35H79.34V312.401z M138.845,312.401h19.835v158.68h-19.835V312.401z M178.515,312.401h39.67v198.35
				h-39.67V312.401z M238.02,312.401h19.835v158.68H238.02V312.401z M277.69,312.401h39.67v198.35h-39.67V312.401z M337.194,312.401
				h19.835v158.68h-19.835V312.401z M376.864,312.401h39.67v198.35h-39.67V312.401z M436.369,312.401h19.835v158.68h-19.835V312.401
				z M476.039,312.401h39.67v198.35h-39.67V312.401z M39.67,510.75v-19.835h19.835v19.835H39.67z M138.845,510.75v-19.835h19.835
				v19.835H138.845z M238.02,510.75v-19.835h19.835v19.835H238.02z M337.194,510.75v-19.835h19.835v19.835H337.194z M436.369,510.75
				v-19.835h19.835v19.835H436.369z M535.544,510.75v-19.835h19.835v19.835H535.544z M557.551,252.896H37.498l-4.959-19.835H562.51
				L557.551,252.896z"/>
			<rect x="287.607" y="173.556" width="19.835" height="19.835"/>
			<rect x="337.194" y="173.556" width="19.835" height="19.835"/>
		</g>
	</g>
</g>
<g>
</g>
<g>
</g>
<g>
</g>
<g>
</g>
<g>
</g>
<g>
</g>
<g>
</g>
<g>
</g>
<g>
</g>
<g>
</g>
<g>
</g>
<g>
</g>
<g>
</g>
<g>
</g>
<g>
</g>
</svg>
