<svg height="512pt" viewBox="0 0 512 512" width="512pt" xmlns="http://www.w3.org/2000/svg"><path d="m324.132812 394.269531v-159.3125l141.097657-159.070312c8.675781-9.78125 7.007812-24.921875-3.59375-32.574219-9.226563-6.664062-22.003907-5.230469-29.523438 3.3125l-111.988281 127.214844h-86.167969l-50.03125 8.222656c-14.277343 2.347656-26.183593 12.207031-31.144531 25.800781l-57.09375 156.347657h47.089844l42.082031-114.222657h3.007813v144.28125zm0 0" fill="#ff6a47"/><path d="m187.867188 334.152344v60.117187h136.265624v-60.117187h-50.097656v30.058594h-36.070312v-30.058594zm0 0" fill="#fd3501"/><path d="m278.042969 140.773438h-44.085938v33.066406c4.65625 7.234375 12.792969 12.023437 22.042969 12.023437s17.386719-4.789062 22.042969-12.023437zm0 0" fill="#ffb680"/><path d="m300.398438 112.519531c.445312-2.539062.691406-5.148437.691406-7.816406v-22.042969c0-24.898437-20.1875-45.085937-45.089844-45.085937-23.207031 0-42.3125 17.535156-44.804688 40.078125h62.839844zm0 0" fill="#626169"/><path d="m274.035156 77.652344h-62.839844c-.183593 1.644531-.285156 3.316406-.285156 5.007812v22.042969c0 24.902344 20.1875 45.089844 45.089844 45.089844 22.234375 0 40.695312-16.097657 44.398438-37.273438zm0 0" fill="#ffdaaa"/><path d="m210.910156 122.738281h-10.019531c-11.066406 0-20.039063-8.96875-20.039063-20.039062v-10.019531c0-11.066407 8.972657-20.039063 20.039063-20.039063h10.019531zm0 0" fill="#feef8f"/><path d="m301.089844 122.738281h10.019531c11.066406 0 20.039063-8.96875 20.039063-20.039062v-10.019531c0-11.066407-8.972657-20.039063-20.039063-20.039063h-10.019531zm0 0" fill="#feef8f"/><path d="m7.515625 394.269531h496.96875v110.214844h-496.96875zm0 0" fill="#626169"/><path d="m37.574219 364.210938h170.332031v30.058593h-170.332031zm0 0" fill="#bcbcc0"/><path d="m474.425781 394.269531h-170.332031v-30.058593h170.332031zm0 0" fill="#bcbcc0"/><path d="m95.6875 364.210938h47.089844l27.414062-74.40625-41.238281-16.691407zm0 0" fill="#ffdaaa"/><path d="m461.636719 43.308594c-9.226563-6.664063-22.003907-5.226563-29.523438 3.316406l-82.40625 93.609375 32.785157 28.929687 82.738281-93.277343c8.675781-9.78125 7.007812-24.921875-3.59375-32.578125zm0 0" fill="#ffdaaa"/><path d="m170.191406 289.804688-10.398437 28.226562-41.160157-16.664062 10.320313-28.253907zm0 0" fill="#ffb680"/><path d="m180.851562 429.339844h50.097657v40.078125h-50.097657zm0 0" fill="#ff6a47"/><path d="m281.050781 429.339844h50.097657v40.078125h-50.097657zm0 0" fill="#feef8f"/><path d="m230.949219 429.339844h50.101562v40.078125h-50.101562zm0 0" fill="#a8e1f8"/><g fill="#fff"><path d="m143.28125 471.921875h-15.03125v-15.03125h15.03125zm0-30.058594h-15.03125v-15.03125h15.03125zm0 0"/><path d="m383.75 471.921875h-15.03125v-15.03125h15.03125zm0-30.058594h-15.03125v-15.03125h15.03125zm0 0"/><path d="m300.585938 314.113281h-15.027344v-15.027343h15.027344zm0-30.058593h-15.027344v-40.078126h15.027344zm0 0"/></g><path d="m481.941406 386.753906v-30.058594h-42.582031v15.03125h27.550781v15.027344h-155.300781v-15.027344h112.71875v-15.03125h-92.679687v-118.882812l139.203124-156.9375c4.808594-5.425781 7.460938-12.398438 7.460938-19.632812 0-9.492188-4.589844-18.472657-12.277344-24.027344-5.078125-3.667969-11.070312-5.605469-17.324218-5.605469-8.515626 0-16.617188 3.664063-22.238282 10.046875l-32.707031 37.152344 11.28125 9.929687 32.707031-37.152343c2.765625-3.144532 6.761719-4.945313 10.957032-4.945313 3.074218 0 6.023437.953125 8.527343 2.761719 3.839844 2.773437 6.042969 7.089844 6.042969 11.839844 0 3.554687-1.304688 6.984374-3.671875 9.660156l-77.765625 87.667968-21.535156-19.003906 34.808594-39.546875-11.28125-9.929687-67.105469 76.234375h-31.171875v-18.132813c6.761718-4.609375 12.394531-10.761718 16.398437-17.9375h9.152344c15.191406 0 27.550781-12.359375 27.550781-27.554687v-20.039063c0-45.578125-37.082031-82.660156-82.660156-82.660156s-82.660156 37.082031-82.660156 82.660156v20.039063c0 15.195312 12.359375 27.554687 27.550781 27.554687h9.152344c4.003906 7.175782 9.636719 13.328125 16.398437 17.9375v19.269532l-27.359375 4.496093 2.441407 14.832031 29.214843-4.804687c6.347657 7.203125 15.464844 11.394531 25.261719 11.394531 10.082031 0 19.460938-4.429687 25.824219-12.023437h41.699219l26.851562-30.507813 21.496094 18.96875-55.253906 62.289063v124.589843h-20.039063v30.058594h-81.15625v-30.058594h-20.039063v-114.222656h-15.761718l-13.800782 37.457032-27.316406-11.054688 21.335938-58.433594c4.027344-11.027344 13.722656-19.058594 25.304687-20.960937l1.546875-.257813-2.4375-14.828125-1.546875.253907c-16.929687 2.78125-31.101562 14.523437-36.984375 30.636718l-55.292968 151.410156h-60.371094v30.058594h-30.058594v125.246094h94.683594v-15.03125h-79.652344v-95.183594h481.9375v95.183594h-387.253906v15.03125h402.285156v-125.246094zm-188.367187-295.722656-15.800781-20.894531h-57.191407c5.167969-14.578125 19.089844-25.046875 35.417969-25.046875 20.71875 0 37.574219 16.851562 37.574219 37.570312zm30.058593 11.667969c0 6.90625-5.617187 12.527343-12.523437 12.527343h-3.566406c.695312-3.402343 1.058593-6.921874 1.058593-10.523437 0 0-.023437-23.714844-.0625-24.546875h2.570313c6.90625 0 12.523437 5.617188 12.523437 12.523438zm-67.632812-87.667969c32.011719 0 58.878906 22.359375 65.855469 52.277344-3.304688-1.402344-6.9375-2.179688-10.746094-2.179688h-5.523437c-7.238282-20.410156-26.726563-35.070312-49.585938-35.070312s-42.347656 14.660156-49.585938 35.070312h-5.523437c-3.808594 0-7.441406.777344-10.746094 2.179688 6.976563-29.917969 33.84375-52.277344 65.855469-52.277344zm-55.109375 100.195312c-6.90625 0-12.523437-5.621093-12.523437-12.527343v-10.019531c0-6.90625 5.617187-12.523438 12.523437-12.523438h2.570313c-.039063.832031-.0625 24.546875-.0625 24.546875 0 3.601563.363281 7.121094 1.058593 10.523437zm17.535156-10.523437v-19.535156h51.871094l22.027344 29.136719c-4.25 16.082031-18.921875 27.972656-36.324219 27.972656-20.71875 0-37.574219-16.855469-37.574219-37.574219zm37.574219 73.644531c-5.707031 0-10.996094-2.5625-14.527344-6.933594v-16.164062c4.617188 1.328125 9.488282 2.058594 14.527344 2.058594s9.910156-.730469 14.527344-2.058594v16.164062c-3.53125 4.371094-8.820313 6.933594-14.527344 6.933594zm-75.648438 105.617188v72.730468h-26.796874zm-47.007812-.964844 27.277344 11.039062-23.082032 62.65625h-31.109374zm-88.253906 88.726562h155.300781v15.027344h-155.300781zm0 0"/><path d="m173.339844 421.824219v55.105469h165.320312v-55.105469zm100.195312 15.027343v25.050782h-35.070312v-25.050782zm-85.167968 0h35.070312v25.050782h-35.070312zm135.265624 25.050782h-35.070312v-25.050782h35.070312zm0 0"/></svg>