<svg height="461pt" viewBox="-69 0 461 461.264" width="461pt" xmlns="http://www.w3.org/2000/svg"><path d="m53.875 238.183594h215.132812v215.132812h-215.132812zm0 0" fill="#7fcac9"/><g fill="#f6bf9b"><path d="m230.59375 84.515625v-76.832031h-138.300781v76.832031c-16.972657 0-30.734375 13.761719-30.734375 30.734375s13.761718 30.734375 30.734375 30.734375v61.464844h138.300781v-61.464844c16.972656 0 30.730469-13.761719 30.730469-30.734375s-13.757813-30.734375-30.730469-30.734375zm0 0"/><path d="m23.140625 238.183594h30.734375v215.132812h-46.101562v-199.765625c0-8.488281 6.882812-15.367187 15.367187-15.367187zm0 0"/><path d="m315.109375 453.316406h-46.101563v-215.132812h30.734376c8.488281 0 15.367187 6.878906 15.367187 15.367187zm0 0"/><path d="m130.707031 238.183594s7.683594 30.734375 30.734375 30.734375c23.050782 0 30.734375-30.734375 30.734375-30.734375zm0 0"/></g><path d="m99.976562 345.75h122.933594v76.832031h-122.933594zm0 0" fill="#394d5c"/><path d="m115.34375 169.03125h92.199219v15.367188h-92.199219zm0 0" fill="#394d5c"/><path d="m92.292969 7.683594h138.300781v46.097656h-138.300781zm0 0" fill="#aabece"/><path d="m115.34375 92.199219h15.363281v15.367187h-15.363281zm0 0" fill="#394d5c"/><path d="m192.175781 92.199219h15.367188v15.367187h-15.367188zm0 0" fill="#394d5c"/><path d="m153.757812 122.933594h15.367188v30.734375h-15.367188zm0 0" fill="#394d5c"/><path d="m184.492188 384.167969c0 12.730469-10.320313 23.050781-23.050782 23.050781-12.730468 0-23.050781-10.320312-23.050781-23.050781s10.320313-23.050781 23.050781-23.050781c12.730469 0 23.050782 10.320312 23.050782 23.050781zm0 0" fill="#cfdfe8"/><path d="m138.390625 315.015625h46.101563v30.734375h-46.101563zm0 0" fill="#cfdfe8"/><path d="m115.34375 322.699219-15.367188 23.050781-15.367187-23.050781v-84.515625h30.734375zm0 0" fill="#394d5c"/><path d="m238.277344 322.699219-15.367188 23.050781-15.367187-23.050781v-84.515625h30.734375zm0 0" fill="#394d5c"/><path d="m92.292969 53.78125s7.683593 30.734375 69.148437 30.734375c61.46875 0 69.152344-30.734375 69.152344-30.734375zm0 0" fill="#394d5c"/><path d="m92.292969 215.132812h138.300781c4.238281.003907 7.679688-3.433593 7.683594-7.671874 0-.003907 0-.007813 0-.011719v-54.558594c20.785156-4.242187 34.199218-24.535156 29.957031-45.324219-3.082031-15.085937-14.871094-26.875-29.957031-29.957031v-69.925781c0-4.242188-3.433594-7.67968775-7.675782-7.683594-.003906 0-.007812 0-.007812 0h-138.300781c-4.242188-.00390625-7.679688 3.433594-7.683594 7.675781v.007813 69.925781c-20.789063 4.246094-34.199219 24.535156-29.957031 45.324219 3.078125 15.085937 14.871094 26.878906 29.957031 29.957031v54.558594c-.003906 4.242187 3.433594 7.679687 7.675781 7.683593zm145.984375-121.621093c12.003906 4.25 18.292968 17.425781 14.042968 29.429687-2.320312 6.5625-7.484374 11.722656-14.042968 14.046875zm-138.300782-78.144531h122.933594v30.730468h-122.933594zm116.367188 46.101562c-7.617188 7.050781-23.289062 15.363281-54.902344 15.363281-31.609375 0-47.285156-8.3125-54.902344-15.363281zm-116.367188 92.199219v-77.90625c11.019532 8.488281 29.71875 16.4375 61.464844 16.4375s50.445313-7.949219 61.46875-16.4375v124.007812h-122.933594zm-30.734374-38.417969c.011718-9.765625 6.164062-18.46875 15.367187-21.738281v43.476562c-9.203125-3.269531-15.355469-11.972656-15.367187-21.738281zm0 0"/><path d="m115.34375 169.03125h92.199219v15.367188h-92.199219zm0 0"/><path d="m115.34375 92.199219h15.363281v15.367187h-15.363281zm0 0"/><path d="m192.175781 92.199219h15.367188v15.367187h-15.367188zm0 0"/><path d="m153.757812 122.933594h15.367188v30.734375h-15.367188zm0 0"/><path d="m299.742188 230.5h-276.601563c-12.722656.015625-23.035156 10.324219-23.046875 23.050781v207.449219h322.699219v-207.449219c-.015625-12.726562-10.328125-23.035156-23.050781-23.050781zm-253.550782 215.132812h-30.734375v-192.082031c.003907-4.242187 3.441407-7.679687 7.683594-7.683593h23.050781zm169.035156-199.765624h15.363282v74.507812l-7.683594 11.523438-7.683594-11.523438v-74.507812zm-53.785156 107.566406h53.785156v61.46875h-107.566406v-61.46875zm-15.367187-15.367188v-15.367187h30.734375v15.367187zm34.90625-92.199218c-3.109375 8.386718-10.65625 14.320312-19.539063 15.367187-8.882812-1.046875-16.429687-6.984375-19.539062-15.367187zm-57.957031 79.160156v-79.160156h2.125c3.898437 10.332031 14.363281 30.730468 36.292968 30.730468 21.929688 0 32.394532-20.398437 36.292969-30.730468h2.125v79.160156l8.695313 13.039062h-16.378907v-30.730468h-61.46875v30.730468h-16.375zm-30.730469-79.160156h15.367187v74.507812l-7.683594 11.523438-7.683593-11.523438zm169.03125 199.765624h-199.765625v-199.765624h15.367187v79.160156l15.367188 23.050781v82.191406h138.296875v-82.191406l15.367187-23.050781v-79.160156h15.367188zm46.101562 0h-30.734375v-199.765624h23.050782c4.242187.003906 7.679687 3.441406 7.683593 7.683593zm0 0"/><path d="m130.707031 384.167969c0 16.972656 13.761719 30.734375 30.734375 30.734375s30.734375-13.761719 30.734375-30.734375c0-16.972657-13.761719-30.734375-30.734375-30.734375-16.964844.015625-30.714844 13.765625-30.734375 30.734375zm30.734375-15.367188c8.488282 0 15.367188 6.878907 15.367188 15.363281 0 8.488282-6.878906 15.367188-15.367188 15.367188-8.488281 0-15.367187-6.878906-15.367187-15.367188.011719-8.480468 6.886719-15.351562 15.367187-15.363281zm0 0"/></svg>