<svg height="512pt" viewBox="-188 0 512 512.00034" width="512pt" xmlns="http://www.w3.org/2000/svg"><path d="m110.933594 492.800781c.074218 2.878907-1.046875 5.664063-3.101563 7.6875-2.054687 2.019531-4.855469 3.101563-7.734375 2.976563h-63.660156c-2.878906.125-5.679688-.957032-7.734375-2.976563-2.054687-2.023437-3.179687-4.808593-3.101563-7.6875l16.554688-202.667969 3.15625-38.65625h20.308594l25.601562-.085937v.085937l3.15625 38.65625zm0 0" fill="#0377af"/><path d="m85.332031 492.800781c.078125 2.878907-1.046875 5.664063-3.101562 7.6875-2.050781 2.019531-4.855469 3.101563-7.734375 2.976563h-38.058594c-2.878906.125-5.679688-.957032-7.734375-2.976563-2.054687-2.023437-3.179687-4.808593-3.101563-7.6875l16.554688-202.667969 3.15625-38.65625h20.308594l3.15625 38.65625zm0 0" fill="#029ce7"/><path d="m110.933594 298.667969h-85.332032c-4.714843 0-8.535156-3.820313-8.535156-8.535157 0-4.710937 3.820313-8.53125 8.535156-8.53125h85.332032c4.714844 0 8.535156 3.820313 8.535156 8.53125 0 4.714844-3.820312 8.535157-8.535156 8.535157zm0 0" fill="#a5a5a4"/><path d="m68.265625 76.800781c-4.710937 0-8.53125-3.820312-8.53125-8.535156v-59.730469c0-4.714844 3.820313-8.535156 8.53125-8.535156 4.714844 0 8.535156 3.820312 8.535156 8.535156v59.730469c0 4.714844-3.820312 8.535156-8.535156 8.535156zm0 0" fill="#c03a2b"/><path d="m51.199219 139.007812v-60.332031c-.441407-5.207031 3.339843-9.824219 8.535156-10.410156h17.066406c5.195313.585937 8.976563 5.203125 8.53125 10.410156v60.332031zm0 0" fill="#0377af"/><path d="m128 196.265625c0 32.992187-26.742188 59.734375-59.734375 59.734375-5.777344.015625-11.527344-.816406-17.066406-2.476562-25.339844-7.527344-42.71875-30.820313-42.71875-57.257813 0-26.433594 17.378906-49.726563 42.71875-57.257813 5.539062-1.65625 11.289062-2.492187 17.066406-2.472656 32.992187 0 59.734375 26.742188 59.734375 59.730469zm0 0" fill="#452793"/><path d="m93.867188 196.265625c0-31.621094-19.101563-57.257813-42.667969-57.257813-23.5625 0-42.664063 25.636719-42.664063 57.257813 0 31.625 19.101563 57.257813 42.664063 57.257813 23.566406 0 42.667969-25.632813 42.667969-57.257813zm0 0" fill="#673aaa"/><path d="m128 196.265625c.023438 8.863281-1.960938 17.617187-5.800781 25.601563h-107.863281c-3.851563-7.984376-5.835938-16.738282-5.800782-25.601563-.035156-2.859375.191406-5.714844.679688-8.53125h118.101562c.488282 2.816406.71875 5.671875.683594 8.53125zm0 0" fill="#ffa601"/><path d="m102.402344 196.265625c.023437 8.863281-1.960938 17.617187-5.804688 25.601563h-82.261718c-3.851563-7.984376-5.835938-16.738282-5.800782-25.601563-.035156-2.859375.191406-5.714844.679688-8.53125h92.503906c.488281 2.816406.714844 5.671875.683594 8.53125zm0 0" fill="#f0cb34"/><path d="m129.902344 225.417969c.0625-.128907.136718-.25.1875-.386719 7.949218-16.9375 8.570312-36.398438 1.714844-53.808594-6.851563-17.410156-20.574219-31.222656-37.9375-38.195312v-54.351563c.480468-9.929687-7.140626-18.386719-17.066407-18.941406v-51.199219c0-4.714844-3.820312-8.535156-8.535156-8.535156-4.710937 0-8.53125 3.820312-8.53125 8.535156v51.199219c-9.925781.554687-17.546875 9.011719-17.066406 18.941406v54.351563c-17.363281 6.972656-31.085938 20.785156-37.941407 38.195312-6.851562 17.410156-6.230468 36.871094 1.714844 53.808594.054688.136719.128906.257812.191406.386719 6.308594 13.292969 16.71875 24.214843 29.703126 31.144531l-2.039063 25.039062h-8.695313c-4.714843 0-8.535156 3.820313-8.535156 8.53125 0 4.714844 3.820313 8.535157 8.535156 8.535157h7.296876l-15.832032 193.628906c-.308594 5.03125 1.496094 9.964844 4.976563 13.609375 3.757812 3.921875 8.964843 6.125 14.394531 6.09375h63.660156c5.425782.027344 10.625-2.175781 14.378906-6.09375 3.523438-3.699219 5.332032-8.707031 4.992188-13.804688l-15.855469-193.433593h7.320313c4.714844 0 8.535156-3.820313 8.535156-8.535157 0-4.710937-3.820312-8.53125-8.535156-8.53125h-8.710938l-2.050781-25.03125c13-6.921874 23.421875-17.847656 29.730469-31.152343zm-112.835938-29.152344h102.402344c-.015625 5.820313-1.027344 11.589844-2.988281 17.066406h-96.425781c-1.960938-5.476562-2.972657-11.246093-2.988282-17.066406zm42.667969-117.589844c0-1.152343.453125-1.824219.117187-1.875l7.996094-.085937c.144532 0 .273438.085937.417969.085937.148437 0 .300781-.085937.460937-.09375l7.390626-.078125c.492187.566406.734374 1.300782.683593 2.046875v49.914063c-5.660156-.785156-11.40625-.785156-17.066406 0zm8.53125 66.390625c21.679687.023438 40.988281 13.695313 48.214844 34.132813h-96.425781c7.222656-20.4375 26.535156-34.109375 48.210937-34.132813zm-38.058594 85.332032h76.117188c-9.667969 10.859374-23.515625 17.066406-38.058594 17.066406-14.539063 0-28.386719-6.207032-38.058594-17.066406zm72.195313 262.90625c.011718.335937-.121094.664062-.367188.894531-.515625.507812-1.21875.773437-1.9375.734375h-63.660156c-.726562.042968-1.4375-.222656-1.953125-.734375-.707031-.75-.375-.714844-.375-.699219l15.914063-194.832031h36.488281zm-17.28125-211.703126h-33.707032l1.542969-18.859374c10.066407 2.386718 20.554688 2.386718 30.617188 0zm0 0"/></svg>